# Alias OBJ Model File
# Exported from SketchUp, (c) 2000-2012 Trimble Navigation Limited
# File units = inches

mtllib blood pressure.mtl

g Mesh1 Component_5_1 Model

usemtl _10
v 71.855 -6.30447 -1.23022
vt 67.125 0
vn 0 -2.77556e-016 1
v 74.4175 -6.30447 -1.23022
vt 69.6875 0
v 74.4175 14.156 -1.23022
vt 69.6875 20.4605
v 71.855 22.8205 -1.23022
vt 67.125 29.125
v 69.328 10.7063 -1.23022
vt 64.598 17.0107
v 66.0228 8.68372 -1.23022
vt 61.2928 14.9882
v 60.2621 7.90914 -1.23022
vt 55.5321 14.2136
v 57.4403 9.52161 -1.23022
vt 52.7103 15.8261
v 51.7828 14.1547 -1.23022
vt 47.0528 20.4592
v 48.8408 11.1749 -1.23022
vt 44.1108 17.4793
v 45.8411 10.5578 -1.23022
vt 41.1111 16.8623
v 39.9893 11.08 -1.23022
vt 35.2593 17.3845
v 37.112 9.43876 -1.23022
vt 32.382 15.7432
v 34.1287 10.3689 -1.23022
vt 29.3987 16.6734
v 31.1209 8.98115 -1.23022
vt 26.3909 15.2856
v 28.2097 12.575 -1.23022
vt 23.4797 18.8794
v 25.4056 18.715 -1.23022
vt 20.6756 25.0195
v 22.4144 13.2273 -1.23022
vt 17.6843 19.5318
v 19.4747 13.2273 -1.23022
vt 14.7447 19.5318
v 16.6387 8.73515 -1.23022
vt 11.9087 15.0396
v 13.7728 22.247 -1.23022
vt 9.04275 28.5515
v 10.8773 7.2108 -1.23022
vt 6.14726 13.5153
v 7.89854 6.26592 -1.23022
vt 3.16853 12.5704
v 4.73 6.82053 -1.23022
vt 0 13.125
v 4.73 -6.30447 -1.23022
vt 0 0
f 1/1/1 2/2/1 3/3/1 4/4/1 5/5/1 6/6/1 7/7/1 8/8/1 9/9/1 10/10/1 11/11/1 12/12/1 13/13/1 14/14/1 15/15/1 16/16/1 17/17/1 18/18/1 19/19/1 20/20/1 21/21/1 22/22/1 23/23/1 24/24/1 25/25/1 

v 71.855 -6.30447 -3.23022
vn 0 -1 -2.77556e-016
v 74.4175 -6.30447 -3.23022
vt 69.6875 2
vt 67.125 2
f 26/1/2 27/2/2 2/26/2 1/27/2 

vt -69.6875 0
vn 0 2.77556e-016 -1
vt -67.125 0
v 4.73 -6.30447 -3.23022
v 4.73 6.82053 -3.23022
v 7.89854 6.26592 -3.23022
vt -3.16853 12.5704
v 10.8773 7.2108 -3.23022
vt -6.14726 13.5153
v 13.7728 22.247 -3.23022
vt -9.04275 28.5515
v 16.6387 8.73515 -3.23022
vt -11.9087 15.0396
v 19.4747 13.2273 -3.23022
vt -14.7447 19.5318
v 22.4144 13.2273 -3.23022
vt -17.6843 19.5318
v 25.4056 18.715 -3.23022
vt -20.6756 25.0195
v 28.2097 12.575 -3.23022
vt -23.4797 18.8794
v 31.1209 8.98115 -3.23022
vt -26.3909 15.2856
v 34.1287 10.3689 -3.23022
vt -29.3987 16.6734
v 37.112 9.43876 -3.23022
vt -32.382 15.7432
v 39.9893 11.08 -3.23022
vt -35.2593 17.3845
v 45.8411 10.5578 -3.23022
vt -41.1111 16.8623
v 48.8408 11.1749 -3.23022
vt -44.1108 17.4793
v 51.7828 14.1547 -3.23022
vt -47.0528 20.4592
v 57.4403 9.52161 -3.23022
vt -52.7103 15.8261
v 60.2621 7.90914 -3.23022
vt -55.5321 14.2136
v 66.0228 8.68372 -3.23022
vt -61.2928 14.9882
v 69.328 10.7063 -3.23022
vt -64.598 17.0107
v 71.855 22.8205 -3.23022
vt -67.125 29.125
v 74.4175 14.156 -3.23022
vt -69.6875 20.4605
f 27/28/3 26/29/3 28/25/3 29/24/3 30/30/3 31/31/3 32/32/3 33/33/3 34/34/3 35/35/3 36/36/3 37/37/3 38/38/3 39/39/3 40/40/3 41/41/3 42/42/3 43/43/3 44/44/3 45/45/3 46/46/3 47/47/3 48/48/3 49/49/3 50/50/3 

vt 0 2
f 28/25/2 26/1/2 1/27/2 25/51/2 

vt -13.125 0
vn -1 0 0
vt -13.125 2
f 29/52/4 28/25/4 25/51/4 24/53/4 

vt -0.953737 0
vn 0.172416 0.985024 2.73399e-016
vt 2.26297 0
vt 2.26297 2
vt -0.953737 2
f 30/54/5 29/55/5 24/56/5 23/57/5 

vt -9.94604 0
vn -0.302363 0.953193 2.64564e-016
vt -6.82104 0
vt -6.82104 2
vt -9.94604 2
f 31/58/6 30/59/6 23/60/6 22/61/6 

vt -29.7463 0
vn -0.981959 0.189093 5.24839e-017
vt -14.4338 0
vt -14.4338 2
vt -29.7463 2
f 32/62/7 31/63/7 22/64/7 21/65/7 

vt 12.2414 0
vn 0.978237 0.207489 5.75898e-017
vt 26.0539 0
vt 26.0539 2
vt 12.2414 2
f 33/66/8 32/67/8 21/68/8 20/69/8 

vt -24.3871 0
vn -0.845583 0.533844 1.48171e-016
vt -19.0746 0
vt -19.0746 2
vt -24.3871 2
f 34/70/9 33/71/9 20/72/9 19/73/9 

vt -17.6843 0
vn 0 1 2.77556e-016
vt -14.7447 0
vt -14.7447 2
vt -17.6843 2
f 35/74/10 34/75/10 19/76/10 18/77/10 

vt -31.8633 0
vn -0.878029 0.478607 1.3284e-016
vt -25.6133 0
vt -25.6133 2
vt -31.8633 2
f 36/78/11 35/79/11 18/80/11 17/81/11 

vt 7.41966 0
vn 0.909634 0.415411 1.153e-016
vt 14.1697 0
vt 14.1697 2
vt 7.41966 2
f 37/82/12 36/83/12 17/84/12 16/85/12 

vt -4.73422 0
vn 0.77704 0.629451 1.74708e-016
vt -0.109221 0
vt -0.109221 2
vt -4.73422 2
f 38/86/13 37/87/13 16/88/13 15/89/13 

vt -33.6796 0
vn -0.41895 0.908009 2.52023e-016
vt -30.3671 0
vt -30.3671 2
vt -33.6796 2
f 39/90/14 38/91/14 15/92/14 14/93/14 

vt -26.2283 0
vn 0.297651 0.954675 2.64975e-016
vt -23.1033 0
vt -23.1033 2
vt -26.2283 2
f 40/94/15 39/95/15 14/96/15 13/97/15 

vt -39.2406 0
vn -0.495473 0.868623 2.41091e-016
vt -35.9281 0
vt -35.9281 2
vt -39.2406 2
f 41/98/16 40/99/16 13/100/16 12/101/16 

vt -39.4496 0
vn 0.0888828 0.996042 2.76457e-016
vt -33.5746 0
vt -33.5746 2
vt -39.4496 2
f 42/102/17 41/103/17 12/104/17 11/105/17 

vt -46.7279 0
vn -0.201478 0.979493 2.71864e-016
vt -43.6654 0
vt -43.6654 2
vt -46.7279 2
f 43/106/18 42/107/18 11/108/18 10/109/18 

vt -47.6172 0
vn -0.711605 0.70258 1.95005e-016
vt -43.4297 0
vt -43.4297 2
vt -47.6172 2
f 44/110/19 43/111/19 10/112/19 9/113/19 

vt -30.7534 0
vn 0.633585 0.773673 2.14737e-016
vt -23.4409 0
vt -23.4409 2
vt -30.7534 2
f 45/114/20 44/115/20 9/116/20 8/117/20 

vt -41.1632 0
vn 0.496144 0.86824 2.40985e-016
vt -37.9132 0
vt -37.9132 2
vt -41.1632 2
f 46/118/21 45/119/21 8/120/21 7/121/21 

vt -62.7434 0
vn -0.133261 0.991081 2.7508e-016
vt -56.9309 0
vt -56.9309 2
vt -62.7434 2
f 47/122/22 46/123/22 7/124/22 6/125/22 

vt -63.9793 0
vn -0.52195 0.852976 2.36748e-016
vt -60.1043 0
vt -60.1043 2
vt -63.9793 2
f 48/126/23 47/127/23 6/128/23 5/129/23 

vt -42.2182 0
vn -0.978929 0.204199 5.66766e-017
vt -29.8432 0
vt -29.8432 2
vt -42.2182 2
f 49/130/24 48/131/24 5/132/24 4/133/24 

vt -0.143244 0
vn 0.958941 0.283604 7.8716e-017
vt 8.89224 0
vt 8.89224 2
vt -0.143244 2
f 50/134/25 49/135/25 4/136/25 3/137/25 

vn 1 0 -0
vt 20.4605 0
vt 20.4605 2
f 27/25/26 50/138/26 3/139/26 2/51/26 

g Mesh2 Component_6_1 Model

usemtl _8
v 70.4878 19.6136 -5.23022
vt -65.7578 25.918
v 74.4175 26.0957 -5.23022
vt -69.6875 32.4001
v 74.4175 -6.30447 -5.23022
v 4.73 -6.30447 -5.23022
v 4.85226 10.3853 -5.23022
vt -0.122257 16.6898
v 9.26009 11.7859 -5.23022
vt -4.53008 18.0904
v 12.1743 14.3399 -5.23022
vt -7.44434 20.6444
v 14.8937 24.611 -5.23022
vt -10.1637 30.9155
v 17.8585 17.6539 -5.23022
vt -13.1285 23.9584
v 20.5862 24.4387 -5.23022
vt -15.8562 30.7431
v 23.805 25.8132 -5.23022
vt -19.075 32.1177
v 26.6051 29.5724 -5.23022
vt -21.8751 35.8769
v 29.4706 20.6461 -5.23022
vt -24.7406 26.9505
v 32.4368 16.9361 -5.23022
vt -27.7068 23.2405
v 35.2742 18.6454 -5.23022
vt -30.5442 24.9498
v 41.2476 18.6454 -5.23022
vt -36.5176 24.9498
v 44.0924 21.5455 -5.23022
vt -39.3624 27.85
v 46.9036 20.043 -5.23022
vt -42.1736 26.3475
v 49.8028 22.3216 -5.23022
vt -45.0728 28.6261
v 52.8814 26.6512 -5.23022
vt -48.1514 32.9556
v 58.6024 17.6979 -5.23022
vt -53.8724 24.0023
v 61.7454 14.4774 -5.23022
vt -57.0154 20.7818
v 64.64 16.3314 -5.23022
vt -59.91 22.6359
v 67.5141 16.9382 -5.23022
vt -62.7841 23.2427
f 51/140/3 52/141/3 53/28/3 54/25/3 55/142/3 56/143/3 57/144/3 58/145/3 59/146/3 60/147/3 61/148/3 62/149/3 63/150/3 64/151/3 65/152/3 66/153/3 67/154/3 68/155/3 69/156/3 70/157/3 71/158/3 72/159/3 73/160/3 74/161/3 

vt -63.8335 0
vn -0.855128 0.518418 1.4389e-016
vt -56.2532 0
v 70.4878 19.6136 -3.23022
vt -56.2532 2
v 74.4175 26.0957 -3.23022
vt -63.8335 2
f 52/162/27 51/163/27 75/164/27 76/165/27 

vt -66.2197 0
vn -0.668842 0.743405 2.06336e-016
vt -62.2197 0
v 67.5141 16.9382 -3.23022
vt -62.2197 2
vt -66.2197 2
f 51/166/28 74/167/28 77/168/28 75/169/28 

vt -66.2312 0
vn -0.206565 0.978433 2.7157e-016
vt -63.2937 0
v 64.64 16.3314 -3.23022
vt -63.2937 2
vt -66.2312 2
f 74/170/29 73/171/29 78/172/29 77/173/29 

vt -62.6576 0
vn -0.539358 0.842077 2.33723e-016
vt -59.2201 0
v 61.7454 14.4774 -3.23022
vt -59.2201 2
vt -62.6576 2
f 73/174/30 72/175/30 79/176/30 78/177/30 

vt -24.9489 0
vn 0.715668 0.698441 1.93856e-016
vt -20.4489 0
v 58.6024 17.6979 -3.23022
vt -20.4489 2
vt -24.9489 2
f 72/178/31 71/179/31 80/180/31 79/181/31 

vt -8.78126 0
vn 0.842663 0.538442 1.49448e-016
vt 1.84374 0
v 52.8814 26.6512 -3.23022
vt 1.84374 2
vt -8.78126 2
f 71/182/32 70/183/32 81/184/32 80/185/32 

vt -54.7618 0
vn -0.814969 0.579504 1.60845e-016
vt -49.4493 0
v 49.8028 22.3216 -3.23022
vt -49.4493 2
vt -54.7618 2
f 70/186/33 69/187/33 82/188/33 81/189/33 

vt -53.1267 0
vn -0.617927 0.786236 2.18224e-016
vt -49.4392 0
v 46.9036 20.043 -3.23022
vt -49.4392 2
vt -53.1267 2
f 69/190/34 68/191/34 83/192/34 82/193/34 

vt -24.7749 0
vn 0.471371 0.881935 2.44786e-016
vt -21.5874 0
v 44.0924 21.5455 -3.23022
vt -21.5874 2
vt -24.7749 2
f 68/194/35 67/195/35 84/196/35 83/197/35 

vt -47.4457 0
vn -0.713891 0.700257 1.9436e-016
vt -43.3832 0
v 41.2476 18.6454 -3.23022
vt -43.3832 2
vt -47.4457 2
f 67/198/36 66/199/36 85/200/36 84/201/36 

vt -36.5176 0
vt -30.5442 0
v 35.2742 18.6454 -3.23022
vt -30.5442 2
vt -36.5176 2
f 66/202/10 65/203/10 86/204/10 85/205/10 

vt -39.038 0
vn -0.516008 0.856584 2.3775e-016
vt -35.7255 0
v 32.4368 16.9361 -3.23022
vt -35.7255 2
vt -39.038 2
f 65/206/37 64/207/37 87/208/37 86/209/37 

vt 0.850204 0
vn 0.781053 0.624464 1.73324e-016
vt 5.6002 0
v 29.4706 20.6461 -3.23022
vt 5.6002 2
vt 0.850204 2
f 64/210/38 63/211/38 88/212/38 87/213/38 

vt 18.0988 0
vn 0.952144 0.30565 8.4835e-017
vt 27.4738 0
v 26.6051 29.5724 -3.23022
vt 27.4738 2
vt 18.0988 2
f 63/214/39 62/215/39 89/216/39 88/217/39 

vt -41.8396 0
vn -0.801969 0.597365 1.65802e-016
vt -37.1521 0
v 23.805 25.8132 -3.23022
vt -37.1521 2
vt -41.8396 2
f 62/218/40 61/219/40 90/220/40 89/221/40 

vt -30.1557 0
vn -0.392721 0.919658 2.55256e-016
vt -26.6557 0
v 20.5862 24.4387 -3.23022
vt -26.6557 2
vt -30.1557 2
f 61/222/41 60/223/41 91/224/41 90/225/41 

vt -34.4388 0
vn -0.927828 0.373009 1.03531e-016
vt -27.1263 0
v 17.8585 17.6539 -3.23022
vt -27.1263 2
vt -34.4388 2
f 60/226/42 59/227/42 92/228/42 91/229/42 

vt 16.8934 0
vn 0.919945 0.392048 1.08815e-016
vt 24.4559 0
v 14.8937 24.611 -3.23022
vt 24.4559 2
vt 16.8934 2
f 59/230/43 58/231/43 93/232/43 92/233/43 

vt -32.4871 0
vn -0.966693 0.255938 7.10369e-017
vt -21.8621 0
v 12.1743 14.3399 -3.23022
vt -21.8621 2
vt -32.4871 2
f 58/234/44 57/235/44 94/236/44 93/237/44 

vt -19.2051 0
vn -0.659088 0.752066 2.0874e-016
vt -15.3301 0
v 9.26009 11.7859 -3.23022
vt -15.3301 2
vt -19.2051 2
f 57/238/45 56/239/45 95/240/45 94/241/45 

vt -9.79574 0
vn -0.302833 0.953044 2.64523e-016
vt -5.17074 0
v 4.85226 10.3853 -3.23022
vt -5.17074 2
vt -9.79574 2
f 56/242/46 55/243/46 96/244/46 95/245/46 

vt -16.6902 0
vn -0.999973 0.00732504 2.03311e-018
v 4.73 -6.30447 -3.23022
vt -16.6902 2
f 55/246/47 54/25/47 97/51/47 96/247/47 

v 74.4175 -6.30447 -3.23022
f 54/25/2 53/2/2 98/26/2 97/51/2 

vt 32.4001 0
vt 32.4001 2
f 53/25/26 52/248/26 76/249/26 98/51/26 

vt 69.6875 32.4001
vt 65.7578 25.918
vt 62.7841 23.2427
vt 59.91 22.6359
vt 57.0154 20.7818
vt 53.8724 24.0023
vt 48.1514 32.9556
vt 45.0728 28.6261
vt 42.1736 26.3475
vt 39.3624 27.85
vt 36.5176 24.9498
vt 30.5442 24.9498
vt 27.7068 23.2405
vt 24.7406 26.9505
vt 21.8751 35.8769
vt 19.075 32.1177
vt 15.8562 30.7431
vt 13.1285 23.9584
vt 10.1637 30.9155
vt 7.44434 20.6444
vt 4.53008 18.0904
vt 0.122257 16.6898
f 76/250/1 75/251/1 77/252/1 78/253/1 79/254/1 80/255/1 81/256/1 82/257/1 83/258/1 84/259/1 85/260/1 86/261/1 87/262/1 88/263/1 89/264/1 90/265/1 91/266/1 92/267/1 93/268/1 94/269/1 95/270/1 96/271/1 97/25/1 98/2/1 

