# Alias OBJ Model File
# Exported from SketchUp, (c) 2000-2012 Trimble Navigation Limited
# File units = inches

mtllib Heart rate.mtl

g Mesh1 Component_9_1 Model

usemtl _1
v 0.333198 -6.30447 -14.8924
vt 0 3.33067e-016
vn 0 2.77556e-016 -1
v 0.333198 6.39625 -14.8924
vt 0 12.7007
v 4.80531 5.49916 -14.8924
vt -4.47212 11.8036
v 7.56288 4.946 -14.8924
vt -7.22968 11.2505
v 10.4327 6.60034 -14.8924
vt -10.0995 12.9048
v 13.5209 5.58755 -14.8924
vt -13.1877 11.892
v 16.5397 6.95118 -14.8924
vt -16.2065 13.2557
v 19.4044 6.70911 -14.8924
vt -19.0713 13.0136
v 22.3513 9.5055 -14.8924
vt -22.0181 15.81
v 25.2858 5.85019 -14.8924
vt -24.9526 12.1547
v 28.2699 5.16132 -14.8924
vt -27.9367 11.4658
v 31.1259 6.26672 -14.8924
vt -30.7927 12.5712
v 34.0606 5.19281 -14.8924
vt -33.7274 11.4973
v 36.9006 7.73637 -14.8924
vt -36.5674 14.0408
v 39.9631 7.73637 -14.8924
vt -39.6299 14.0408
v 42.6459 6.53999 -14.8924
vt -42.3127 12.8445
v 45.7495 6.53999 -14.8924
vt -45.4163 12.8445
v 48.5791 7.71128 -14.8924
vt -48.2459 14.0158
v 51.3123 7.04787 -14.8924
vt -50.9791 13.3523
v 57.3083 4.2303 -14.8924
vt -56.9751 10.5348
v 60.3445 5.38951 -14.8924
vt -60.0113 11.694
v 63.3395 5.56268 -14.8924
vt -63.0063 11.8672
v 65.9818 6.69578 -14.8924
vt -65.6486 13.0003
v 70.0207 7.13303 -14.8924
vt -69.6875 13.4375
v 70.0207 -6.30447 -14.8924
vt -69.6875 3.33067e-016
f 1/1/1 2/2/1 3/3/1 4/4/1 5/5/1 6/6/1 7/7/1 8/8/1 9/9/1 10/10/1 11/11/1 12/12/1 13/13/1 14/14/1 15/15/1 16/16/1 17/17/1 18/18/1 19/19/1 20/20/1 21/21/1 22/22/1 23/23/1 24/24/1 25/25/1 

vt -2 12.7007
vn -1 0 -0
vt -2 8.88178e-016
v 0.333198 -6.30447 -12.8924
vt 0 0
v 0.333198 6.39625 -12.8924
f 2/26/2 1/27/2 26/28/2 27/2/2 

vt 0 2
vn 0 -1 -2.77556e-016
vt -69.6875 2
v 70.0207 -6.30447 -12.8924
vt -69.6875 0
f 1/29/3 25/30/3 28/31/3 26/28/3 

vt 2 8.88178e-016
vn 1 0 -0
vt 2 13.4375
v 70.0207 7.13303 -12.8924
vt 0 13.4375
f 25/32/4 24/33/4 29/34/4 28/28/4 

vt -2 70.729
vn -0.10763 0.994191 2.75943e-016
vt -2 66.6665
v 65.9818 6.69578 -12.8924
vt 1.68311e-013 66.6665
vt 1.78666e-013 70.729
f 24/35/5 23/36/5 30/37/5 29/38/5 

vt -2 65.4586
vn -0.394121 0.919058 2.5509e-016
vt -2 62.5836
v 63.3395 5.56268 -12.8924
vt 4.078e-014 62.5836
vt 4.24902e-014 65.4586
f 23/39/6 22/40/6 31/41/6 30/42/6 

vt -2 63.5863
vn -0.0577238 0.998333 2.77093e-016
vt -2 60.5863
v 60.3445 5.38951 -12.8924
vt 2.88074e-013 60.5863
vt 3.0245e-013 63.5863
f 22/43/7 21/44/7 32/45/7 31/46/7 

vt -2 60.2352
vn -0.356679 0.934227 2.593e-016
vt -2 56.9852
v 57.3083 4.2303 -12.8924
vt 4.14199e-014 56.9852
vt 4.36272e-014 60.2352
f 21/47/8 20/48/8 33/49/8 32/50/8 

vt 2 -47.0853
vn 0.425292 0.905056 2.51204e-016
vt 2 -40.4603
v 51.3123 7.04787 -12.8924
vt 3.01113e-014 -40.4603
vt 3.36529e-014 -47.0853
f 20/51/9 19/52/9 34/53/9 33/54/9 

vt 2 -46.391
vn 0.235881 0.971782 2.69724e-016
vt 2 -43.5785
v 48.5791 7.71128 -12.8924
vt 5.51679e-014 -43.5785
vt 5.82931e-014 -46.391
f 19/55/10 18/56/10 35/57/10 34/58/10 

vt -2 49.9383
vn -0.382463 0.923971 2.56453e-016
vt -2 46.8758
v 45.7495 6.53999 -12.8924
vt 3.0453e-014 46.8758
vt 3.23504e-014 49.9383
f 18/59/11 17/60/11 36/61/11 35/62/11 

vt 45.4163 2
vn 0 1 2.77556e-016
vt 42.3127 2
v 42.6459 6.53999 -12.8924
vt 42.3127 3.56505e-015
vt 45.4163 3.56505e-015
f 17/63/12 16/64/12 37/65/12 36/66/12 

vt 2 -33.4131
vn 0.407277 0.913305 2.53493e-016
vt 2 -30.4756
v 39.9631 7.73637 -12.8924
vt 2.4666e-014 -30.4756
vt 2.63358e-014 -33.4131
f 16/67/13 15/68/13 38/69/13 37/70/13 

vt 39.6299 2
vt 36.5674 2
v 36.9006 7.73637 -12.8924
vt 36.5674 3.89712e-015
vt 39.6299 3.89712e-015
f 15/71/12 14/72/12 39/73/12 38/74/12 

vt -2 36.607
vn -0.667162 0.744913 2.06755e-016
vt -2 32.7945
v 34.0606 5.19281 -12.8924
vt 1.04522e-014 32.7945
vt 1.13323e-014 36.607
f 14/75/14 13/76/14 40/77/14 39/78/14 

vt 2 -27.7223
vn 0.343649 0.939098 2.60652e-016
vt 2 -24.5973
v 31.1259 6.26672 -12.8924
vt 2.33558e-014 -24.5973
vt 2.55817e-014 -27.7223
f 13/79/15 12/80/15 41/81/15 40/82/15 

vt -2 33.2544
vn -0.360946 0.932587 2.58845e-016
vt -2 30.1919
v 28.2699 5.16132 -12.8924
vt 2.00342e-014 30.1919
vt 2.20823e-014 33.2544
f 12/83/16 11/84/16 42/85/16 41/86/16 

vt 2 -24.6416
vn 0.224938 0.974373 2.70443e-016
vt 2 -21.5791
v 25.2858 5.85019 -12.8924
vt 3.00006e-014 -21.5791
vt 3.35882e-014 -24.6416
f 11/87/17 10/88/17 43/89/17 42/90/17 

vt 2 -6.1429
vn 0.779799 0.62603 1.73758e-016
vt 2 -1.4554
v 22.3513 9.5055 -12.8924
vt 4.90617e-015 -1.4554
vt 5.56005e-015 -6.1429
f 10/91/18 9/92/18 44/93/18 43/94/18 

vt -2 26.8543
vn -0.688343 0.725385 2.01335e-016
vt -2 22.7918
v 19.4044 6.70911 -12.8924
vt 5.57819e-015 22.7918
vt 6.44013e-015 26.8543
f 9/95/19 8/96/19 45/97/19 44/98/19 

vt 2 -17.9078
vn 0.0842012 0.996449 2.7657e-016
vt 2 -15.0328
v 16.5397 6.95118 -12.8924
vt 5.32323e-014 -15.0328
vt 6.26421e-014 -17.9078
f 8/99/20 7/100/20 46/101/20 45/102/20 

vt -2 20.2264
vn -0.411664 0.911336 2.52946e-016
vt -2 16.9139
v 13.5209 5.58755 -12.8924
vt 8.10314e-015 16.9139
vt 9.95804e-015 20.2264
f 7/103/21 6/104/21 47/105/21 46/106/21 

vt 2 -8.8251
vn 0.311627 0.950204 2.63735e-016
vt 2 -5.5751
v 10.4327 6.60034 -12.8924
vt 8.54735e-015 -5.5751
vt 1.11609e-014 -8.8251
f 6/107/22 5/108/22 48/109/22 47/110/22 

vt -2 15.1947
vn -0.499422 0.866359 2.40463e-016
vt -2 11.8822
v 7.56288 4.946 -12.8924
vt 3.48097e-015 11.8822
vt 4.86274e-015 15.1947
f 5/111/23 4/112/23 49/113/23 48/114/23 

vt 2 -4.87575
vn 0.196678 0.980468 2.72135e-016
vt 2 -2.06325
v 4.80531 5.49916 -12.8924
vt 6.18786e-015 -2.06325
vt 1.00034e-014 -4.87575
f 4/115/24 3/116/24 50/117/24 49/118/24 

vt 2 2.49795
vt -3.9443e-031 2.49795
f 3/116/24 2/119/24 27/120/24 50/117/24 

vn 0 -2.77556e-016 1
vt 69.6875 0
vt 69.6875 13.4375
vt 65.6486 13.0003
vt 63.0063 11.8672
vt 60.0113 11.694
vt 56.9751 10.5348
vt 50.9791 13.3523
vt 48.2459 14.0158
vt 45.4163 12.8445
vt 42.3127 12.8445
vt 39.6299 14.0408
vt 36.5674 14.0408
vt 33.7274 11.4973
vt 30.7927 12.5712
vt 27.9367 11.4658
vt 24.9526 12.1547
vt 22.0181 15.81
vt 19.0713 13.0136
vt 16.2065 13.2557
vt 13.1877 11.892
vt 10.0995 12.9048
vt 7.22968 11.2505
vt 4.47212 11.8036
f 27/2/25 26/28/25 28/121/25 29/122/25 30/123/25 31/124/25 32/125/25 33/126/25 34/127/25 35/128/25 36/129/25 37/130/25 38/131/25 39/132/25 40/133/25 41/134/25 42/135/25 43/136/25 44/137/25 45/138/25 46/139/25 47/140/25 48/141/25 49/142/25 50/143/25 

