# Alias OBJ Model File
# Exported from SketchUp, (c) 2000-2012 Trimble Navigation Limited
# File units = inches

mtllib temp.mtl

g Mesh1 Component_8_1 Model

usemtl _2
v -0.00474398 16.3759 -2
vt -16.3759 0
vn -1 -0.000289693 -8.0406e-020
v 1.42109e-014 8.88178e-016 -2
vt 1.3743e-006 0
v 1.42109e-014 3.33067e-016 -8.88178e-016
vt 1.3743e-006 2
v -0.00474398 16.3759 3.55271e-015
vt -16.3759 2
f 1/1/1 2/2/1 3/3/1 4/4/1 

vt -0.00474398 0
vn 0 2.77556e-016 -1
vt 0 16.3759
v 14.8621 13.9558 -2
vt -14.8668 13.9558
v 36.0298 16.4355 -2
vt -36.0346 16.4355
v 53.7963 14.4688 -2
vt -53.801 14.4688
v 69.8125 18.6875 -2
vt -69.8172 18.6875
v 69.8125 8.88178e-016 -2
vt -69.8172 0
f 2/5/2 1/6/2 5/7/2 6/8/2 7/9/2 8/10/2 9/11/2 

vt -12.4314 0
vn 0.160671 0.987008 2.7395e-016
vt 2.63113 0
vt 2.63113 2
v 14.8621 13.9558 3.10862e-015
vt -12.4314 2
f 5/12/3 1/13/3 4/14/3 10/15/3 

vn 0 -2.77556e-016 1
vt 0.00474398 0
v 69.8125 3.33067e-016 -8.88178e-016
vt 69.8172 0
v 69.8125 18.6875 4.44089e-015
vt 69.8172 18.6875
v 53.7963 14.4688 3.10862e-015
vt 53.801 14.4688
v 36.0298 16.4355 3.55271e-015
vt 36.0346 16.4355
vt 14.8668 13.9558
f 4/6/4 3/16/4 11/17/4 12/18/4 13/19/4 14/20/4 10/21/4 

vn 0 -1 -2.77556e-016
vt 69.8172 2
vt 0.00474398 2
f 2/16/5 9/17/5 11/22/5 3/23/5 

vt 0 0
vn 1 0 -0
vt 18.6875 0
vt 18.6875 2
vt 0 2
f 9/24/6 8/25/6 12/26/6 11/27/6 

vt -72.2744 0
vn -0.254714 0.967016 2.68401e-016
vt -55.7119 0
vt -55.7119 2
vt -72.2744 2
f 8/28/7 7/29/7 13/30/7 12/31/7 

vt -51.8825 0
vn 0.110026 0.993929 2.75871e-016
vt -34.0075 0
vt -34.0075 2
vt -51.8825 2
f 7/32/8 6/33/8 14/34/8 13/35/8 

vt -37.7021 0
vn -0.116351 0.993208 2.75671e-016
vt -16.3896 0
vt -16.3896 2
vt -37.7021 2
f 6/36/9 5/37/9 10/38/9 14/39/9 

